<svg width="346" height="107" viewBox="0 0 346 107" fill="none" xmlns="http://www.w3.org/2000/svg">
<path d="M10.9448 101.509C10.9448 100.464 11.1349 99.4062 11.5151 98.3369C11.9191 97.2676 12.4657 96.1745 13.1548 95.0576C13.8439 93.9408 14.64 92.7764 15.543 91.5645C16.4697 90.3763 17.4678 89.1406 18.5371 87.8574V81.1206C17.9668 82.2375 17.3252 83.2236 16.6123 84.0791C15.8994 84.9346 15.139 85.6593 14.3311 86.2534C13.5469 86.8237 12.7271 87.2633 11.8716 87.5723C11.0399 87.8574 10.2201 88 9.41211 88C8.29525 88 7.21403 87.7267 6.16846 87.1802C5.14665 86.6336 4.23177 85.8138 3.42383 84.7207C2.61589 83.6038 1.97428 82.2018 1.49902 80.5146C1.02376 78.8275 0.786133 76.8433 0.786133 74.562C0.786133 72.6372 1.01188 70.7362 1.46338 68.8589C1.91488 66.9816 2.59212 65.3063 3.49512 63.833C4.39811 62.3359 5.51497 61.124 6.8457 60.1973C8.17643 59.2705 9.73291 58.8071 11.5151 58.8071C12.9172 58.8071 14.2241 59.0923 15.436 59.6626C16.6717 60.2329 17.7054 61.0646 18.5371 62.1577V61.73C18.5371 61.2785 18.6678 60.8745 18.9292 60.5181C19.2144 60.1379 19.5589 59.8289 19.9629 59.5913C20.3906 59.3299 20.8302 59.1398 21.2817 59.021C21.757 58.8784 22.1729 58.8071 22.5293 58.8071C22.9333 58.8071 23.2184 58.8665 23.3848 58.9854C23.5511 59.0804 23.6343 59.2586 23.6343 59.52C23.6343 59.9002 23.5868 60.7557 23.4917 62.0864C23.3966 63.4172 23.3491 65.3657 23.3491 67.9321V83.4019C23.9432 82.6652 24.5729 81.8454 25.2383 80.9424C25.9036 80.0394 26.569 79.1007 27.2344 78.1265C27.8997 77.1284 28.5413 76.1066 29.1592 75.061C29.8008 74.0155 30.3949 72.9699 30.9414 71.9243L31.2979 71.2114L32.7593 72.3164L32.4028 73.0293C31.8325 74.1699 31.1672 75.3581 30.4067 76.5938C29.6701 77.8057 28.8859 79.0057 28.0542 80.1938C27.2463 81.3582 26.4264 82.487 25.5947 83.5801C24.7868 84.6494 24.0382 85.6118 23.3491 86.4673V94.2021C23.3491 96.3883 23.1471 98.2419 22.7432 99.7627C22.363 101.307 21.8283 102.555 21.1392 103.505C20.4738 104.48 19.6659 105.181 18.7153 105.608C17.7886 106.036 16.7786 106.25 15.6855 106.25C14.3311 106.25 13.2023 105.822 12.2993 104.967C11.3963 104.135 10.9448 102.983 10.9448 101.509ZM11.5864 84.3643C12.3231 84.3643 13.0479 84.1504 13.7607 83.7227C14.4974 83.2949 15.1746 82.7484 15.7925 82.083C16.4103 81.4176 16.9569 80.6929 17.4321 79.9087C17.9312 79.1007 18.2995 78.3166 18.5371 77.5562V67.5044C18.5371 66.4351 18.3708 65.4727 18.0381 64.6172C17.7054 63.738 17.2658 63.0013 16.7192 62.4072C16.1727 61.7894 15.543 61.3141 14.8301 60.9814C14.141 60.6488 13.4281 60.4824 12.6914 60.4824C11.5508 60.4824 10.5527 60.827 9.69727 61.5161C8.8418 62.1815 8.12891 63.0726 7.55859 64.1895C6.98828 65.2826 6.56055 66.542 6.27539 67.9678C6.014 69.3936 5.8833 70.8431 5.8833 72.3164C5.8833 74.1462 5.99023 75.7977 6.2041 77.271C6.44173 78.7443 6.79818 80.0156 7.27344 81.085C7.7487 82.1305 8.34277 82.9385 9.05566 83.5088C9.76855 84.0791 10.6121 84.3643 11.5864 84.3643ZM15.2935 104.076C15.6737 104.076 16.0539 103.993 16.4341 103.826C16.8381 103.684 17.1945 103.339 17.5034 102.792C17.8123 102.246 18.0618 101.438 18.252 100.369C18.4421 99.2993 18.5371 97.8498 18.5371 96.02V90.709C16.8975 92.6813 15.5549 94.5467 14.5093 96.3052C13.4875 98.0874 12.9766 99.7508 12.9766 101.295C12.9766 102.032 13.1785 102.674 13.5825 103.22C13.9865 103.791 14.5568 104.076 15.2935 104.076ZM64.8037 76.3086C64.8037 73.7897 64.8988 71.259 65.0889 68.7163C65.279 66.1737 65.5285 63.5954 65.8374 60.9814H62.5938L62.9858 58.8071H66.1226C66.4552 56.3833 66.7879 53.9595 67.1206 51.5356C67.4771 49.0881 67.7979 46.6405 68.083 44.1929H71.7188C71.6712 44.7157 71.5999 45.4761 71.5049 46.4741C71.4336 47.4484 71.3385 48.589 71.2197 49.896C71.1247 51.1792 71.0296 52.5931 70.9346 54.1377C70.8395 55.6585 70.7445 57.215 70.6494 58.8071H77.5645L77.208 60.9814H70.5068C70.4118 62.3359 70.3286 63.6667 70.2573 64.9736C70.186 66.2806 70.1147 67.5282 70.0435 68.7163C69.9959 69.8807 69.9603 70.9619 69.9365 71.96C69.9128 72.9342 69.9009 73.7778 69.9009 74.4907C69.9009 76.2967 69.9484 77.8057 70.0435 79.0176C70.1623 80.2295 70.3286 81.2038 70.5425 81.9404C70.7801 82.6771 71.0653 83.1999 71.3979 83.5088C71.7544 83.8177 72.1584 83.9722 72.6099 83.9722C73.2039 83.9722 73.8574 83.6751 74.5703 83.0811C75.307 82.4632 76.0674 81.6434 76.8516 80.6216C77.6357 79.5998 78.4318 78.4116 79.2397 77.0571C80.0477 75.6789 80.8319 74.2174 81.5923 72.6729L81.9487 71.9243L83.4102 73.0293L83.0537 73.7778C81.9606 75.9878 80.8675 77.972 79.7744 79.7305C78.7051 81.4889 77.6476 82.986 76.6021 84.2217C75.5565 85.4336 74.5347 86.3722 73.5366 87.0376C72.5386 87.6792 71.5762 88 70.6494 88C69.7227 88 68.891 87.7861 68.1543 87.3584C67.4414 86.9307 66.8354 86.2534 66.3364 85.3267C65.8374 84.3761 65.4572 83.1642 65.1958 81.6909C64.9344 80.2176 64.8037 78.4235 64.8037 76.3086ZM101.874 28.1528C106.579 28.1528 110.833 28.9132 114.635 30.4341C118.461 31.9312 121.728 34.0223 124.437 36.7075C127.146 39.3927 129.237 42.5889 130.71 46.2959C132.184 50.0029 132.92 54.0545 132.92 58.4507C132.92 61.2785 132.647 64.0112 132.101 66.6489C131.554 69.2866 130.77 71.7699 129.748 74.0986C128.726 76.4274 127.467 78.5542 125.97 80.479C124.496 82.4038 122.821 84.0672 120.944 85.4692C119.09 86.8475 117.047 87.9168 114.813 88.6772C112.603 89.4377 110.239 89.8179 107.72 89.8179C105.153 89.8179 102.563 89.5802 99.9492 89.105C97.3353 88.6297 94.7451 88.1188 92.1787 87.5723C91.2995 88.0713 90.3965 88.499 89.4697 88.8555C88.543 89.2357 87.6162 89.5446 86.6895 89.7822C85.7627 90.0436 84.8478 90.2337 83.9448 90.3525C83.0656 90.4951 82.2339 90.5664 81.4497 90.5664C79.0734 90.5664 77.2674 90.2931 76.0317 89.7466C74.7723 89.2 74.1426 88.3802 74.1426 87.2871C74.1426 86.6455 74.3208 86.0752 74.6772 85.5762C75.0099 85.0771 75.5802 84.6613 76.3882 84.3286C77.1961 83.9722 78.2536 83.7108 79.5605 83.5444C80.8438 83.3543 82.4478 83.2593 84.3726 83.2593C85.8696 83.2593 87.3429 83.3424 88.7925 83.5088C90.242 83.6514 91.6797 83.8296 93.1055 84.0435L94.0679 83.0454C94.5669 82.4513 94.9471 81.7028 95.2085 80.7998C95.4699 79.873 95.66 78.6849 95.7788 77.2354C95.8976 75.7858 95.9689 74.0155 95.9927 71.9243C96.0164 69.8094 96.0283 67.2549 96.0283 64.2607C96.0283 61.3617 96.0402 58.8903 96.064 56.8467C96.1115 54.7793 96.2065 53.009 96.3491 51.5356C96.4917 50.0623 96.7056 48.8148 96.9907 47.793C97.2759 46.7474 97.6561 45.7969 98.1313 44.9414C98.6304 44.0622 99.2482 43.2067 99.9849 42.375C100.722 41.5195 101.601 40.5452 102.623 39.4521L104.44 41.0562C103.918 41.5552 103.502 42.173 103.193 42.9097C102.908 43.6226 102.694 44.478 102.551 45.4761C102.409 46.4504 102.314 47.5672 102.266 48.8267C102.242 50.0623 102.23 51.4644 102.23 53.0327V73.1006C102.23 74.6452 102.064 75.9997 101.731 77.1641C101.399 78.3047 100.947 79.3265 100.377 80.2295C99.8304 81.1325 99.2007 81.9404 98.4878 82.6533C97.7749 83.3662 97.0382 84.0316 96.2778 84.6494C97.6799 84.9346 99.0462 85.2197 100.377 85.5049C101.708 85.79 102.991 86.0514 104.227 86.2891C105.486 86.5267 106.686 86.7287 107.827 86.895C108.991 87.0376 110.096 87.1089 111.142 87.1089C113.09 87.1089 114.825 86.6812 116.346 85.8257C117.867 84.9702 119.185 83.8058 120.302 82.3325C121.419 80.8354 122.358 79.0889 123.118 77.0928C123.902 75.0729 124.532 72.9105 125.007 70.6055C125.483 68.3005 125.815 65.8885 126.005 63.3696C126.219 60.8507 126.326 58.3556 126.326 55.8843C126.326 51.9634 125.827 48.4465 124.829 45.3335C123.831 42.2205 122.346 39.5828 120.374 37.4204C118.425 35.2342 115.989 33.5708 113.066 32.4302C110.167 31.2658 106.805 30.6836 102.979 30.6836C100.222 30.6836 97.8224 30.9093 95.7788 31.3608C93.7352 31.7886 91.9767 32.3708 90.5034 33.1074C89.0539 33.8203 87.8657 34.6401 86.939 35.5669C86.0122 36.4937 85.2756 37.4561 84.729 38.4541C84.2062 39.4284 83.8379 40.4027 83.624 41.377C83.4339 42.3512 83.3389 43.2424 83.3389 44.0503C83.3389 45.0008 83.4102 45.9395 83.5527 46.8662C83.7191 47.7692 84.028 48.5771 84.4795 49.29C84.9548 50.0029 85.6201 50.5732 86.4756 51.001C87.3311 51.4287 88.4717 51.6426 89.8975 51.6426C90.3727 51.6426 90.7648 51.6188 91.0737 51.5713C91.3826 51.5 91.644 51.4168 91.8579 51.3218C92.0955 51.2267 92.2975 51.1198 92.4639 51.001L92.8916 53.104C92.5352 53.3654 91.9292 53.5911 91.0737 53.7812C90.242 53.9714 89.339 54.0664 88.3647 54.0664C86.939 54.0664 85.6082 53.8169 84.3726 53.3179C83.1606 52.8188 82.1032 52.1416 81.2002 51.2861C80.2972 50.4069 79.5962 49.397 79.0972 48.2563C78.5744 47.1157 78.313 45.9038 78.313 44.6206C78.313 42.4106 78.8952 40.3195 80.0596 38.3472C81.224 36.3511 82.8517 34.6045 84.9429 33.1074C87.034 31.5866 89.5173 30.3866 92.3926 29.5073C95.2917 28.6043 98.4521 28.1528 101.874 28.1528ZM79.9883 85.8257C79.6081 85.8257 79.2041 85.8376 78.7764 85.8613C78.3486 85.8851 77.9565 85.9445 77.6001 86.0396C77.2199 86.1346 76.911 86.2772 76.6733 86.4673C76.4357 86.6574 76.3169 86.9307 76.3169 87.2871C76.3169 87.7624 76.709 88.1188 77.4932 88.3564C78.2773 88.5941 79.5962 88.7129 81.4497 88.7129C82.8755 88.7129 84.23 88.5584 85.5132 88.2495C86.8201 87.9406 88.0439 87.4891 89.1846 86.895C87.6162 86.6099 86.0597 86.3604 84.5151 86.1465C82.9705 85.9326 81.4616 85.8257 79.9883 85.8257ZM137.02 72.6729L137.376 71.9243C137.732 71.2114 138.053 70.4748 138.338 69.7144C138.647 68.9539 138.909 68.241 139.123 67.5757C139.336 66.8866 139.503 66.2806 139.622 65.7578C139.74 65.2113 139.824 64.7954 139.871 64.5103C139.253 64.439 138.659 64.2845 138.089 64.0469C137.519 63.8092 137.02 63.4884 136.592 63.0845C136.164 62.6805 135.831 62.2052 135.594 61.6587C135.332 61.1121 135.202 60.4943 135.202 59.8052C135.202 59.2586 135.297 58.7715 135.487 58.3438C135.677 57.916 135.938 57.5596 136.271 57.2744C136.58 56.9893 136.936 56.7754 137.34 56.6328C137.721 56.4665 138.125 56.3833 138.552 56.3833C139.123 56.3833 139.622 56.5021 140.049 56.7397C140.477 56.9774 140.833 57.2982 141.119 57.7021C141.404 58.0824 141.618 58.5339 141.76 59.0566C141.903 59.5557 141.974 60.0785 141.974 60.625C142.639 60.625 143.352 60.5299 144.113 60.3398C144.897 60.1497 145.681 59.9478 146.465 59.7339C147.25 59.4963 148.022 59.2824 148.782 59.0923C149.543 58.9022 150.244 58.8071 150.885 58.8071C151.432 58.8071 151.871 58.9259 152.204 59.1636C152.537 59.3774 152.703 59.7458 152.703 60.2686C152.703 60.6488 152.584 61.2785 152.347 62.1577C152.133 63.0369 151.86 64.0588 151.527 65.2231C151.194 66.3875 150.826 67.6589 150.422 69.0371C150.042 70.3916 149.685 71.7699 149.353 73.1719C149.02 74.5501 148.735 75.8927 148.497 77.1997C148.283 78.5067 148.176 79.6711 148.176 80.6929C148.176 81.9761 148.319 82.8434 148.604 83.2949C148.889 83.7464 149.4 83.9722 150.137 83.9722C150.446 83.9722 150.826 83.8415 151.277 83.5801C151.753 83.2949 152.323 82.7603 152.988 81.9761C153.654 81.1681 154.438 80.0275 155.341 78.5542C156.268 77.0571 157.337 75.0967 158.549 72.6729L158.905 71.9243L160.367 73.0293L160.01 73.7778C158.584 76.6294 157.313 78.9701 156.196 80.7998C155.079 82.6296 154.046 84.0791 153.095 85.1484C152.168 86.2178 151.289 86.9663 150.458 87.394C149.626 87.798 148.794 88 147.962 88C146.56 88 145.42 87.4653 144.541 86.396C143.661 85.3267 143.222 83.6751 143.222 81.4414C143.222 80.2295 143.388 78.9701 143.721 77.6631C144.053 76.3561 144.469 75.061 144.968 73.7778C145.467 72.4709 146.026 71.1877 146.644 69.9282C147.261 68.6688 147.844 67.4806 148.39 66.3638C148.96 65.2231 149.471 64.1657 149.923 63.1914C150.374 62.2171 150.695 61.3617 150.885 60.625L150.671 60.4111C150.291 60.4111 149.78 60.6131 149.139 61.0171C148.497 61.4211 147.772 61.8844 146.964 62.4072C146.18 62.9062 145.337 63.3815 144.434 63.833C143.531 64.2845 142.616 64.5578 141.689 64.6528C141.641 64.9855 141.535 65.4727 141.368 66.1143C141.226 66.7559 141.024 67.4688 140.762 68.2529C140.501 69.0371 140.204 69.8451 139.871 70.6768C139.538 71.5085 139.194 72.2926 138.837 73.0293L138.481 73.7778L137.02 72.6729ZM138.766 58.3794C138.552 58.3794 138.374 58.4507 138.231 58.5933C138.089 58.7358 138.018 58.9022 138.018 59.0923C138.018 59.3774 138.089 59.627 138.231 59.8408C138.374 60.0309 138.552 60.1973 138.766 60.3398C138.98 60.4587 139.194 60.5537 139.408 60.625C139.645 60.6725 139.847 60.6963 140.014 60.6963C140.014 60.0309 139.907 59.4844 139.693 59.0566C139.479 58.6051 139.17 58.3794 138.766 58.3794ZM173.52 80.2651C173.401 80.4552 173.222 80.7879 172.985 81.2632C172.771 81.7147 172.486 82.2256 172.129 82.7959C171.797 83.3662 171.393 83.9603 170.917 84.5781C170.466 85.196 169.943 85.7544 169.349 86.2534C168.755 86.7524 168.09 87.1683 167.353 87.501C166.64 87.8337 165.844 88 164.965 88C164.276 88 163.563 87.8574 162.826 87.5723C162.09 87.2871 161.4 86.7643 160.759 86.0039C160.141 85.2435 159.63 84.2098 159.226 82.9028C158.822 81.5721 158.62 79.8612 158.62 77.77C158.62 75.7739 158.691 73.7778 158.834 71.7817C158.977 69.7619 159.143 67.9202 159.333 66.2568C159.547 64.5934 159.749 63.2033 159.939 62.0864C160.129 60.9696 160.272 60.2923 160.367 60.0547C160.462 59.8408 160.652 59.6507 160.937 59.4844C161.222 59.318 161.543 59.1873 161.899 59.0923C162.28 58.9972 162.66 58.9259 163.04 58.8784C163.444 58.8309 163.789 58.8071 164.074 58.8071C164.454 58.8071 164.751 58.9022 164.965 59.0923C165.202 59.2824 165.321 59.6032 165.321 60.0547C165.321 60.2686 165.274 60.6963 165.179 61.3379C165.107 61.9557 165.012 62.7161 164.894 63.6191C164.775 64.5221 164.644 65.5202 164.501 66.6133C164.383 67.7064 164.264 68.8232 164.145 69.9639C164.026 71.0807 163.919 72.1976 163.824 73.3145C163.753 74.4076 163.717 75.4056 163.717 76.3086C163.717 78.8988 163.991 80.8236 164.537 82.083C165.107 83.3424 166.034 83.9722 167.317 83.9722C168.41 83.9722 169.515 83.1761 170.632 81.584C171.773 79.9919 172.759 77.675 173.591 74.6333C173.71 73.3501 173.817 71.9837 173.912 70.5342C174.03 69.0609 174.137 67.6707 174.232 66.3638C174.327 65.033 174.411 63.8449 174.482 62.7993C174.577 61.7537 174.66 61.0052 174.731 60.5537C174.803 60.221 174.993 59.9478 175.302 59.7339C175.611 59.4963 175.955 59.318 176.335 59.1992C176.739 59.0566 177.12 58.9616 177.476 58.9141C177.856 58.8428 178.141 58.8071 178.332 58.8071C178.736 58.8071 179.009 58.9022 179.151 59.0923C179.318 59.2586 179.401 59.5319 179.401 59.9121C179.401 60.2448 179.365 60.8864 179.294 61.8369C179.246 62.7637 179.175 63.8568 179.08 65.1162C179.009 66.3519 178.926 67.6826 178.831 69.1084C178.736 70.5342 178.64 71.9124 178.545 73.2432C178.474 74.5501 178.403 75.7383 178.332 76.8076C178.284 77.877 178.26 78.6849 178.26 79.2314C178.26 80.8473 178.343 82.1187 178.51 83.0454C178.7 83.9722 179.104 84.4355 179.722 84.4355C180.173 84.4355 180.66 84.1504 181.183 83.5801C181.73 82.986 182.312 82.1662 182.93 81.1206C183.571 80.075 184.26 78.8394 184.997 77.4136C185.734 75.964 186.53 74.3838 187.385 72.6729L187.742 71.9243L189.203 73.0293L188.847 73.7778C187.706 76.0353 186.696 78.0552 185.817 79.8374C184.961 81.5959 184.142 83.0811 183.357 84.293C182.573 85.5049 181.777 86.4316 180.969 87.0732C180.161 87.6911 179.258 88 178.26 88C177.333 88 176.561 87.8218 175.943 87.4653C175.349 87.1089 174.874 86.598 174.518 85.9326C174.161 85.2673 173.9 84.4593 173.733 83.5088C173.591 82.5583 173.52 81.4771 173.52 80.2651ZM201.5 61.2666C200.835 61.2666 200.087 61.5636 199.255 62.1577C198.447 62.7518 197.627 63.5241 196.795 64.4746C195.964 65.4014 195.156 66.4469 194.372 67.6113C193.611 68.7757 192.946 69.9282 192.375 71.0688C192.304 73.16 192.233 75.4412 192.162 77.9126C192.114 80.384 192.09 83.0216 192.09 85.8257C192.09 86.1821 191.924 86.5029 191.591 86.7881C191.282 87.0495 190.914 87.2752 190.486 87.4653C190.059 87.6317 189.619 87.7624 189.167 87.8574C188.716 87.9525 188.348 88 188.062 88C187.706 88 187.373 87.8931 187.064 87.6792C186.756 87.4653 186.601 86.9901 186.601 86.2534C186.601 85.897 186.637 85.4574 186.708 84.9346C186.779 84.388 186.874 83.8058 186.993 83.188C187.088 82.5701 187.207 81.9404 187.35 81.2988C187.468 80.6335 187.587 80.0156 187.706 79.4453V62.0151C187.706 61.5399 187.718 61.1715 187.742 60.9102C187.742 60.625 187.777 60.4111 187.849 60.2686C187.991 59.9359 188.241 59.6745 188.597 59.4844C188.954 59.2943 189.334 59.1517 189.738 59.0566C190.142 58.9378 190.534 58.8665 190.914 58.8428C191.294 58.819 191.591 58.8071 191.805 58.8071C192.209 58.8071 192.482 58.9141 192.625 59.1279C192.791 59.3418 192.875 59.722 192.875 60.2686C192.875 60.1973 192.815 60.7795 192.696 62.0151C192.601 63.2508 192.518 65.0212 192.447 67.3262C193.16 66.2093 193.932 65.14 194.764 64.1182C195.595 63.0964 196.463 62.1934 197.366 61.4092C198.269 60.625 199.195 59.9953 200.146 59.52C201.12 59.0448 202.106 58.8071 203.104 58.8071C204.887 58.8071 206.194 59.3774 207.025 60.5181C207.857 61.6349 208.273 63.1558 208.273 65.0806C208.273 66.2925 208.19 67.647 208.023 69.144C207.881 70.6174 207.703 72.1263 207.489 73.6709C207.299 75.1917 207.12 76.6888 206.954 78.1621C206.812 79.6117 206.74 80.9424 206.74 82.1543C206.74 83.7227 207.227 84.5068 208.202 84.5068C208.511 84.5068 208.867 84.3524 209.271 84.0435C209.699 83.7108 210.222 83.1048 210.839 82.2256C211.481 81.3464 212.241 80.1463 213.121 78.6255C214 77.0809 215.045 75.0967 216.257 72.6729L216.614 71.9243L218.075 73.0293L217.719 73.7778C216.293 76.6294 215.022 78.9701 213.905 80.7998C212.812 82.6296 211.814 84.0791 210.911 85.1484C210.008 86.2178 209.164 86.9663 208.38 87.394C207.596 87.798 206.812 88 206.027 88C205.528 88 205.029 87.9287 204.53 87.7861C204.031 87.6436 203.592 87.394 203.211 87.0376C202.831 86.6812 202.522 86.2059 202.285 85.6118C202.047 84.994 201.928 84.2098 201.928 83.2593C201.928 81.8335 202.023 80.2295 202.213 78.4473C202.403 76.665 202.617 74.8828 202.855 73.1006C203.093 71.3184 203.306 69.6431 203.497 68.0747C203.687 66.4826 203.782 65.1875 203.782 64.1895C203.782 63.3102 203.592 62.6092 203.211 62.0864C202.831 61.5399 202.261 61.2666 201.5 61.2666ZM246.805 73.0293L246.448 73.7778C245.45 75.7739 244.5 77.6393 243.597 79.374C242.694 81.1087 241.791 82.6177 240.888 83.9009C239.985 85.1841 239.058 86.194 238.107 86.9307C237.181 87.6436 236.183 88 235.113 88C234.044 88 232.998 87.7148 231.977 87.1445C230.955 86.5742 229.933 85.7782 228.911 84.7563C227.913 83.7345 226.903 82.5464 225.881 81.1919C224.883 79.8136 223.85 78.3166 222.78 76.7007L221.533 76.9146C221.485 79.0057 221.414 80.8949 221.319 82.582C221.224 84.2454 221.105 85.6118 220.962 86.6812C220.891 87.1564 220.689 87.501 220.356 87.7148C220.048 87.9049 219.62 88 219.073 88C218.432 88 217.897 87.9168 217.469 87.7505C217.042 87.5841 216.709 87.3822 216.471 87.1445C216.21 86.8831 216.032 86.6099 215.937 86.3247C215.818 86.0158 215.758 85.7188 215.758 85.4336C215.758 83.9128 216.008 82.0236 216.507 79.7661V61.3379C216.507 56.7754 216.744 52.8307 217.22 49.5039C217.695 46.1533 218.337 43.3849 219.145 41.1987C219.952 38.9888 220.891 37.361 221.96 36.3154C223.054 35.2461 224.206 34.7114 225.418 34.7114C226.725 34.7114 227.652 35.1392 228.198 35.9946C228.769 36.8263 229.054 37.9788 229.054 39.4521C229.054 40.7354 228.864 42.3869 228.483 44.4067C228.103 46.4028 227.569 48.6009 226.879 51.001C226.214 53.401 225.43 55.908 224.527 58.522C223.624 61.1121 222.65 63.6429 221.604 66.1143V66.8984C222.269 65.8291 223.042 64.8073 223.921 63.833C224.824 62.8587 225.786 62.0033 226.808 61.2666C227.83 60.5062 228.875 59.9121 229.945 59.4844C231.038 59.0329 232.107 58.8071 233.153 58.8071C234.08 58.8071 234.923 58.9378 235.684 59.1992C236.468 59.4606 237.145 59.8408 237.715 60.3398C238.286 60.8389 238.725 61.4686 239.034 62.229C239.343 62.9657 239.498 63.8211 239.498 64.7954C239.498 65.7935 239.272 66.7915 238.82 67.7896C238.393 68.7876 237.703 69.75 236.753 70.6768C235.826 71.6035 234.626 72.4827 233.153 73.3145C231.68 74.1224 229.897 74.8353 227.806 75.4531C227.949 75.667 228.186 76.0234 228.519 76.5225C228.852 77.0215 229.244 77.5918 229.695 78.2334C230.171 78.8512 230.681 79.5047 231.228 80.1938C231.775 80.8592 232.333 81.4771 232.903 82.0474C233.497 82.5939 234.08 83.0573 234.65 83.4375C235.22 83.7939 235.743 83.9722 236.218 83.9722C236.86 83.9722 237.513 83.7108 238.179 83.188C238.844 82.6414 239.533 81.881 240.246 80.9067C240.983 79.9087 241.743 78.7205 242.527 77.3423C243.312 75.9403 244.131 74.3838 244.987 72.6729L245.343 71.9243L246.805 73.0293ZM221.604 69.9639C221.604 70.5104 221.592 70.9976 221.568 71.4253C221.568 71.8293 221.568 72.2332 221.568 72.6372C221.568 73.0174 221.556 73.4095 221.533 73.8135C221.533 74.2174 221.533 74.6689 221.533 75.168C223.957 74.8115 226 74.3363 227.664 73.7422C229.351 73.1481 230.717 72.459 231.763 71.6748C232.808 70.8906 233.569 70.0352 234.044 69.1084C234.519 68.1579 234.757 67.1598 234.757 66.1143C234.757 65.5677 234.662 65.0449 234.472 64.5459C234.305 64.0231 234.056 63.5716 233.723 63.1914C233.39 62.7874 232.975 62.4666 232.476 62.229C232 61.9914 231.466 61.8726 230.872 61.8726C230.04 61.8726 229.196 62.0983 228.341 62.5498C227.509 62.9775 226.677 63.5597 225.846 64.2964C225.038 65.033 224.265 65.9004 223.529 66.8984C222.816 67.8727 222.174 68.8945 221.604 69.9639ZM224.741 36.5293C224.242 36.5293 223.802 37.0164 223.422 37.9907C223.065 38.965 222.757 40.4858 222.495 42.5532C222.234 44.5968 222.02 47.2108 221.854 50.395C221.687 53.5555 221.556 57.3338 221.461 61.73C222.459 59.0923 223.267 56.6209 223.885 54.3159C224.503 51.9871 224.978 49.896 225.311 48.0425C225.667 46.1652 225.905 44.5374 226.024 43.1592C226.143 41.7572 226.202 40.6403 226.202 39.8086C226.202 38.5492 226.083 37.6937 225.846 37.2422C225.632 36.7669 225.264 36.5293 224.741 36.5293Z" fill="black"/>
<path d="M265.269 28.1528C269.974 28.1528 274.227 28.9132 278.029 30.4341C281.855 31.9312 285.123 34.0223 287.832 36.7075C290.541 39.3927 292.632 42.5889 294.105 46.2959C295.578 50.0029 296.315 54.0545 296.315 58.4507C296.315 61.2785 296.042 64.0112 295.495 66.6489C294.949 69.2866 294.164 71.7699 293.143 74.0986C292.121 76.4274 290.861 78.5542 289.364 80.479C287.891 82.4038 286.216 84.0672 284.338 85.4692C282.485 86.8475 280.441 87.9168 278.208 88.6772C275.998 89.4377 273.633 89.8179 271.114 89.8179C268.548 89.8179 265.958 89.5802 263.344 89.105C260.73 88.6297 258.14 88.1188 255.573 87.5723C254.694 88.0713 253.791 88.499 252.864 88.8555C251.938 89.2357 251.011 89.5446 250.084 89.7822C249.157 90.0436 248.242 90.2337 247.339 90.3525C246.46 90.4951 245.628 90.5664 244.844 90.5664C242.468 90.5664 240.662 90.2931 239.426 89.7466C238.167 89.2 237.537 88.3802 237.537 87.2871C237.537 86.6455 237.715 86.0752 238.072 85.5762C238.404 85.0771 238.975 84.6613 239.783 84.3286C240.591 83.9722 241.648 83.7108 242.955 83.5444C244.238 83.3543 245.842 83.2593 247.767 83.2593C249.264 83.2593 250.737 83.3424 252.187 83.5088C253.637 83.6514 255.074 83.8296 256.5 84.0435L257.462 83.0454C257.961 82.4513 258.342 81.7028 258.603 80.7998C258.864 79.873 259.055 78.6849 259.173 77.2354C259.292 75.7858 259.363 74.0155 259.387 71.9243C259.411 69.8094 259.423 67.2549 259.423 64.2607C259.423 61.3617 259.435 58.8903 259.458 56.8467C259.506 54.7793 259.601 53.009 259.744 51.5356C259.886 50.0623 260.1 48.8148 260.385 47.793C260.67 46.7474 261.051 45.7969 261.526 44.9414C262.025 44.0622 262.643 43.2067 263.379 42.375C264.116 41.5195 264.995 40.5452 266.017 39.4521L267.835 41.0562C267.312 41.5552 266.896 42.173 266.587 42.9097C266.302 43.6226 266.088 44.478 265.946 45.4761C265.803 46.4504 265.708 47.5672 265.661 48.8267C265.637 50.0623 265.625 51.4644 265.625 53.0327V73.1006C265.625 74.6452 265.459 75.9997 265.126 77.1641C264.793 78.3047 264.342 79.3265 263.771 80.2295C263.225 81.1325 262.595 81.9404 261.882 82.6533C261.169 83.3662 260.433 84.0316 259.672 84.6494C261.074 84.9346 262.441 85.2197 263.771 85.5049C265.102 85.79 266.385 86.0514 267.621 86.2891C268.881 86.5267 270.081 86.7287 271.221 86.895C272.386 87.0376 273.491 87.1089 274.536 87.1089C276.485 87.1089 278.219 86.6812 279.74 85.8257C281.261 84.9702 282.58 83.8058 283.697 82.3325C284.814 80.8354 285.752 79.0889 286.513 77.0928C287.297 75.0729 287.927 72.9105 288.402 70.6055C288.877 68.3005 289.21 65.8885 289.4 63.3696C289.614 60.8507 289.721 58.3556 289.721 55.8843C289.721 51.9634 289.222 48.4465 288.224 45.3335C287.226 42.2205 285.74 39.5828 283.768 37.4204C281.819 35.2342 279.384 33.5708 276.461 32.4302C273.562 31.2658 270.199 30.6836 266.374 30.6836C263.617 30.6836 261.217 30.9093 259.173 31.3608C257.13 31.7886 255.371 32.3708 253.898 33.1074C252.448 33.8203 251.26 34.6401 250.333 35.5669C249.407 36.4937 248.67 37.4561 248.124 38.4541C247.601 39.4284 247.232 40.4027 247.019 41.377C246.828 42.3512 246.733 43.2424 246.733 44.0503C246.733 45.0008 246.805 45.9395 246.947 46.8662C247.114 47.7692 247.423 48.5771 247.874 49.29C248.349 50.0029 249.015 50.5732 249.87 51.001C250.726 51.4287 251.866 51.6426 253.292 51.6426C253.767 51.6426 254.159 51.6188 254.468 51.5713C254.777 51.5 255.039 51.4168 255.252 51.3218C255.49 51.2267 255.692 51.1198 255.858 51.001L256.286 53.104C255.93 53.3654 255.324 53.5911 254.468 53.7812C253.637 53.9714 252.734 54.0664 251.759 54.0664C250.333 54.0664 249.003 53.8169 247.767 53.3179C246.555 52.8188 245.498 52.1416 244.595 51.2861C243.692 50.4069 242.991 49.397 242.492 48.2563C241.969 47.1157 241.708 45.9038 241.708 44.6206C241.708 42.4106 242.29 40.3195 243.454 38.3472C244.618 36.3511 246.246 34.6045 248.337 33.1074C250.429 31.5866 252.912 30.3866 255.787 29.5073C258.686 28.6043 261.847 28.1528 265.269 28.1528ZM243.383 85.8257C243.003 85.8257 242.599 85.8376 242.171 85.8613C241.743 85.8851 241.351 85.9445 240.995 86.0396C240.614 86.1346 240.306 86.2772 240.068 86.4673C239.83 86.6574 239.711 86.9307 239.711 87.2871C239.711 87.7624 240.104 88.1188 240.888 88.3564C241.672 88.5941 242.991 88.7129 244.844 88.7129C246.27 88.7129 247.625 88.5584 248.908 88.2495C250.215 87.9406 251.438 87.4891 252.579 86.895C251.011 86.6099 249.454 86.3604 247.91 86.1465C246.365 85.9326 244.856 85.8257 243.383 85.8257ZM342.582 39.0957C342.582 41.2106 342.166 43.2067 341.334 45.084C340.502 46.9375 339.445 48.6484 338.162 50.2168C336.902 51.7852 335.512 53.2109 333.991 54.4941C332.494 55.7536 331.068 56.8467 329.714 57.7734C331.615 57.9398 333.504 58.4032 335.381 59.1636C337.282 59.9002 338.981 60.9339 340.479 62.2646C341.999 63.5716 343.223 65.1637 344.15 67.041C345.1 68.8945 345.576 71.0094 345.576 73.3857C345.576 75.3343 345.291 77.0928 344.72 78.6611C344.174 80.2057 343.437 81.5959 342.51 82.8315C341.583 84.0435 340.526 85.089 339.338 85.9683C338.174 86.8475 336.985 87.5723 335.773 88.1426C334.562 88.7129 333.361 89.1287 332.173 89.3901C331.009 89.6753 329.975 89.8179 329.072 89.8179C326.791 89.8179 324.89 89.5446 323.369 88.998C321.872 88.4515 320.672 87.7861 319.769 87.002C318.89 86.194 318.272 85.3504 317.916 84.4712C317.559 83.592 317.381 82.8197 317.381 82.1543C317.381 81.1325 317.595 80.1582 318.022 79.2314C318.474 78.2809 319.068 77.4255 319.805 76.665C320.541 75.9046 321.397 75.2393 322.371 74.6689C323.345 74.0749 324.355 73.6234 325.401 73.3145L326.149 74.4907C324.652 75.2987 323.547 76.3442 322.834 77.6274C322.122 78.8869 321.765 80.1582 321.765 81.4414C321.765 82.1543 321.908 82.9028 322.193 83.687C322.502 84.4474 322.953 85.1484 323.547 85.79C324.165 86.4316 324.926 86.9663 325.829 87.394C326.755 87.798 327.837 88 329.072 88C330.878 88 332.565 87.6673 334.134 87.002C335.702 86.3128 337.057 85.3742 338.197 84.186C339.362 82.9741 340.265 81.5602 340.906 79.9443C341.572 78.3285 341.904 76.5819 341.904 74.7046C341.904 72.7798 341.5 71.0807 340.692 69.6074C339.908 68.1341 338.851 66.8984 337.52 65.9004C336.213 64.8786 334.692 64.1063 332.958 63.5835C331.247 63.0607 329.464 62.7993 327.611 62.7993C326.85 62.7993 326.102 62.8468 325.365 62.9419C324.629 63.0132 323.928 63.1201 323.262 63.2627C322.621 63.3815 322.038 63.5003 321.516 63.6191C320.993 63.738 320.589 63.833 320.304 63.9043L319.947 63.5479L323.227 58.4507C323.488 58.3794 323.785 58.2962 324.118 58.2012C324.403 58.1299 324.747 58.0586 325.151 57.9873C325.555 57.8923 326.007 57.821 326.506 57.7734C327.646 57.0843 328.835 56.217 330.07 55.1714C331.33 54.1021 332.47 52.8783 333.492 51.5C334.538 50.098 335.393 48.5296 336.059 46.7949C336.748 45.0602 337.092 43.1711 337.092 41.1274C337.092 37.6818 336.272 35.0798 334.633 33.3213C332.993 31.5628 330.653 30.6836 327.611 30.6836C325.852 30.6836 324.082 31.0638 322.3 31.8242C320.518 32.5609 318.795 33.7015 317.131 35.2461C315.492 36.7907 313.947 38.7393 312.498 41.0918C311.072 43.4443 309.824 46.2127 308.755 49.397C307.709 52.5812 306.878 56.2051 306.26 60.2686C305.642 64.332 305.333 68.8351 305.333 73.7778C305.333 75.8215 305.416 77.7106 305.583 79.4453C305.773 81.18 306.046 82.689 306.402 83.9722C306.783 85.2316 307.246 86.2178 307.792 86.9307C308.339 87.6436 308.981 88 309.717 88C310.454 88 311.036 87.4653 311.464 86.396C311.915 85.3029 312.248 83.889 312.462 82.1543C312.7 80.3958 312.842 78.4354 312.89 76.2729C312.961 74.1105 312.997 71.9362 312.997 69.75C312.997 66.4232 312.949 63.2983 312.854 60.3755C312.759 57.4289 312.652 54.8031 312.533 52.498C312.438 50.193 312.343 48.2682 312.248 46.7236C312.153 45.179 312.094 44.1453 312.07 43.6226L316.205 42.375C316.323 42.5651 316.49 43.1354 316.704 44.0859C316.917 45.0365 317.131 46.2959 317.345 47.8643C317.559 49.4089 317.737 51.2148 317.88 53.2822C318.046 55.3258 318.129 57.5358 318.129 59.9121C318.129 63.9281 318.011 67.4569 317.773 70.4985C317.559 73.5164 317.25 76.1423 316.846 78.376C316.442 80.5859 315.967 82.4276 315.42 83.9009C314.898 85.3742 314.315 86.5505 313.674 87.4297C313.056 88.2852 312.403 88.8911 311.713 89.2476C311.048 89.6278 310.383 89.8179 309.717 89.8179C308.268 89.8179 306.961 89.3188 305.796 88.3208C304.656 87.3465 303.681 86.0514 302.874 84.4355C302.066 82.7959 301.448 80.9305 301.02 78.8394C300.592 76.7244 300.378 74.5501 300.378 72.3164C300.378 69.1084 300.675 65.7935 301.27 62.3716C301.864 58.9497 302.743 55.611 303.907 52.3555C305.072 49.0762 306.509 45.9751 308.22 43.0522C309.931 40.1056 311.903 37.5392 314.137 35.353C316.371 33.1431 318.854 31.3965 321.587 30.1133C324.343 28.8063 327.326 28.1528 330.534 28.1528C332.363 28.1528 334.015 28.4023 335.488 28.9014C336.985 29.3766 338.257 30.0895 339.302 31.04C340.348 31.9668 341.156 33.1074 341.726 34.4619C342.296 35.8164 342.582 37.361 342.582 39.0957Z" fill="#5C9E31"/>
<path d="M53.2437 39.6137H59.7431" stroke="black" stroke-width="0.5" stroke-miterlimit="10" stroke-linecap="round" stroke-linejoin="round"/>
<path d="M30.7357 39.6137H46.241" stroke="black" stroke-width="0.5" stroke-miterlimit="10" stroke-linecap="round" stroke-linejoin="round"/>
<path d="M30 39L35.2703 47.16L45.5 63L55.7297 47.16L61 39H30Z" fill="#B1CC33"/>
<path d="M52.6458 39L47.2657 47.16L41 56.664L45.1771 63L55.6199 47.16L61 39H52.6458Z" fill="#5C9E31"/>
<path d="M45.3568 64.4234V87" stroke="black" stroke-width="2" stroke-miterlimit="10" stroke-linecap="round" stroke-linejoin="round"/>
<path d="M32.3284 87H58.385" stroke="black" stroke-width="2" stroke-miterlimit="10" stroke-linecap="round" stroke-linejoin="round"/>
<path d="M65.7135 32.0309L55.4862 48.433L45.259 64.8351L35.0317 48.433L25 32.3441" stroke="black" stroke-width="2" stroke-miterlimit="10" stroke-linecap="round" stroke-linejoin="round"/>
<path d="M25.1946 32.3401L25 32.0309" stroke="black" stroke-width="2" stroke-miterlimit="10" stroke-linecap="round" stroke-linejoin="round"/>
<path d="M47 33.1245C47 33.1245 48.206 30.8827 50.1873 27.6544C51.1348 26.0403 52.3408 24.1571 53.633 22.1843C54.3221 21.1979 54.9251 20.2115 55.6142 19.1354C56.3034 18.149 56.9925 17.0729 57.7678 16.0865C58.4569 15.1001 59.2322 14.024 59.9214 13.0376C60.6105 12.0511 61.3858 11.0647 62.0749 10.0783C63.4532 8.19516 64.8315 6.40169 65.9513 4.9669C68.2772 2.00766 70 0.124512 70 0.124512C70 0.124512 68.794 2.36636 66.8127 5.59462C65.8652 7.20875 64.6592 9.0919 63.367 11.0647C62.6779 12.0511 62.0749 13.0376 61.3858 14.1136C60.6966 15.1001 60.0075 16.1761 59.2322 17.1626C58.5431 18.149 57.7678 19.2251 57.0787 20.2115C56.3895 21.1979 55.6142 22.1843 54.9251 23.1707C53.5468 25.0539 52.1685 26.7577 51.0487 28.2821C48.7228 31.2414 47.0861 33.1245 47 33.1245Z" fill="#110D0A"/>
<path d="M52.4859 29.8004C55.5753 29.0737 57.5461 26.0062 56.8879 22.9489C56.2297 19.8917 53.1917 18.0024 50.1023 18.7292C47.013 19.4559 45.0421 22.5234 45.7004 25.5806C46.3586 28.6379 49.3966 30.5271 52.4859 29.8004Z" fill="#81882D"/>
<path d="M60.3321 18.5075C63.6727 17.7557 65.8697 14.8749 65.2391 12.0731C64.6086 9.27131 61.3893 7.60945 58.0487 8.36125C54.7081 9.11305 52.5112 11.9938 53.1417 14.7956C53.7722 17.5974 56.9915 19.2593 60.3321 18.5075Z" fill="#727724"/>
<path d="M53.4697 26.2888C54.8609 24.8346 55.1025 22.7295 54.0094 21.5869C52.9163 20.4443 50.9024 20.697 49.5112 22.1512C48.12 23.6054 47.8784 25.7105 48.9715 26.8531C50.0646 27.9957 52.0785 27.743 53.4697 26.2888Z" fill="#85471B"/>
<path d="M59.0014 14.7809C60.0948 13.6874 60.2531 12.0728 59.3548 11.1746C58.4566 10.2764 56.8421 10.4348 55.7486 11.5282C54.6552 12.6217 54.4969 14.2363 55.3951 15.1345C56.2933 16.0327 57.9079 15.8744 59.0014 14.7809Z" fill="#85471B"/>
</svg>
